# xmcd
#
# Track frame offsets:
#	150
#	16525
#	35325
#	50825
#	66450
#	82650
#	99800
#	118975
#	138050
#	157725
#	174525
#	193475
#	210250
#	225750
#	244200
#	262112
#	279650
#	297750
#	298575
#	299400
#	300225
#	301050
#	301875
#	302700
#	303525
#	304350
#	305175
#	306000
#	306825
#	307650
#	308475
#	309300
#	310425
#	310875
#	311325
#	311775
#	312225
#	312675
#	313125
#	313575
#	314025
#	314475
#	314925
#	315375
#	315825
#	316275
#	316725
#	317175
#	317625
#	318075
#	318525
#	318975
#	319425
#	319875
#	320200
#
# Disc length: 4510 seconds
#
# Revision: 1
# Processed by: cddbd v1.5PL3 Copyright (c) Steve Scherf et al.
# Submitted via: CDex 1.50Beta5
#
DISCID=15119c37
DTITLE=Five - FIVE
DYEAR=1900
DGENRE=Pop -> Japanese Pop
TTITLE0=SLAM DUNK DA FUNK
TTITLE1=WHEN THE LIGHTS GO OUT
TTITLE2=EVERYBODY GET UP
TTITLE3=GOT THE FEELIN'
TTITLE4=IT'S THE THINGS YOU DO
TTITLE5=HUMAN (THE FIVE REMIX)
TTITLE6=UNTIL THE TIME IS THROUGH
TTITLE7=SATISFIED
TTITLE8=PARTYLINE 555-ON-LINE
TTITLE9=THAT'S WHAT YOU TOLD ME
TTITLE10=IT'S ALL OVER
TTITLE11=DON'T YOU WANT IT
TTITLE12=SHAKE
TTITLE13=COLD SWEAT
TTITLE14=STRAIGHT UP FUNK
TTITLE15=MY SONG
TTITLE16=CAN U JAM
TTITLE17=*
TTITLE18=*
TTITLE19=*
TTITLE20=*
TTITLE21=*
TTITLE22=*
TTITLE23=*
TTITLE24=*
TTITLE25=*
TTITLE26=*
TTITLE27=*
TTITLE28=*
TTITLE29=*
TTITLE30=*
TTITLE31=*
TTITLE32=*
TTITLE33=*
TTITLE34=*
TTITLE35=*
TTITLE36=*
TTITLE37=*
TTITLE38=*
TTITLE39=*
TTITLE40=*
TTITLE41=*
TTITLE42=*
TTITLE43=*
TTITLE44=*
TTITLE45=*
TTITLE46=*
TTITLE47=*
TTITLE48=*
TTITLE49=*
TTITLE50=*
TTITLE51=*
TTITLE52=*
TTITLE53=*
TTITLE54=SECRET TRACK
EXTD=
EXTT0=
EXTT1=
EXTT2=
EXTT3=
EXTT4=
EXTT5=
EXTT6=
EXTT7=
EXTT8=
EXTT9=
EXTT10=
EXTT11=
EXTT12=
EXTT13=
EXTT14=
EXTT15=
EXTT16=
EXTT17=
EXTT18=
EXTT19=
EXTT20=
EXTT21=
EXTT22=
EXTT23=
EXTT24=
EXTT25=
EXTT26=
EXTT27=
EXTT28=
EXTT29=
EXTT30=
EXTT31=
EXTT32=
EXTT33=
EXTT34=
EXTT35=
EXTT36=
EXTT37=
EXTT38=
EXTT39=
EXTT40=
EXTT41=
EXTT42=
EXTT43=
EXTT44=
EXTT45=
EXTT46=
EXTT47=
EXTT48=
EXTT49=
EXTT50=
EXTT51=
EXTT52=
EXTT53=
EXTT54=
PLAYORDER=
